<svg xmlns="http://www.w3.org/2000/svg" viewBox="0 0 18 22"><defs><style>.a{fill:#66c5f1;}</style></defs><path class="a" d="M11,26a7.2,7.2,0,0,1-3-3,10.6,10.6,0,0,1-1-5V14.7A14.4,14.4,0,0,1,8,9.3a7.2,7.2,0,0,1,3-3.2A10.9,10.9,0,0,1,16,5a10.6,10.6,0,0,1,5,1.1,7.2,7.2,0,0,1,3,3.2,12.7,12.7,0,0,1,1,5.4v3.8a4.6,4.6,0,0,1-.9,3.1,3,3,0,0,1-2.4,1,3.1,3.1,0,0,1-2.6-1,3.9,3.9,0,0,1-.8-2.8h2.4A2.3,2.3,0,0,0,21,20a.8.8,0,0,0,.8.5,1.2,1.2,0,0,0,.8-.4,4.6,4.6,0,0,0,.2-1.4v-4a10.2,10.2,0,0,0-.7-4.2A5.6,5.6,0,0,0,19.8,8,7.4,7.4,0,0,0,16,7.1a8.9,8.9,0,0,0-3.8.8A5.6,5.6,0,0,0,10,10.5a10.1,10.1,0,0,0-.8,4.2V18a8.6,8.6,0,0,0,.7,3.8,5.1,5.1,0,0,0,2.3,2.3,8.6,8.6,0,0,0,3.8.7h3.6V27H16A10.6,10.6,0,0,1,11,26Zm1.3-4.8a6.4,6.4,0,0,1-1-4V15.1A6.1,6.1,0,0,1,12.5,11,4.3,4.3,0,0,1,16,9.7,4.2,4.2,0,0,1,19.5,11a6.1,6.1,0,0,1,1.2,4.1V19l-1.7.7a3.6,3.6,0,0,1-1.1,2.2,4.4,4.4,0,0,1-2.5.7A3.8,3.8,0,0,1,12.3,21.2Zm5.5-1.6a3.7,3.7,0,0,0,.6-2.3V14.9a3.4,3.4,0,0,0-.6-2.2,1.9,1.9,0,0,0-1.8-.8c-1.6,0-2.4,1-2.4,3.1v2.3a3.7,3.7,0,0,0,.6,2.3,2.1,2.1,0,0,0,1.8.7A2.1,2.1,0,0,0,17.8,19.6Z" transform="translate(-7 -5)"/></svg>